<svg width="38" height="38" viewBox="0 0 38 38" fill="none" xmlns="http://www.w3.org/2000/svg">
<path d="M19 11.6667L11.6667 19L14.2333 21.5667L17.1667 18.6333L17.1667 26.3333L20.8333 26.3333L20.8333 18.6333L23.7667 21.5667L26.3333 19L19 11.6667ZM19 0.666667C21.5361 0.666668 23.9195 1.14822 26.15 2.11134C28.3806 3.07322 30.3208 4.37917 31.9708 6.02917C33.6208 7.67917 34.9268 9.61945 35.8887 11.85C36.8518 14.0806 37.3333 16.4639 37.3333 19C37.3333 21.5361 36.8518 23.9194 35.8887 26.15C34.9268 28.3806 33.6208 30.3208 31.9708 31.9708C30.3208 33.6208 28.3806 34.9274 26.15 35.8905C23.9195 36.8524 21.5361 37.3333 19 37.3333C16.4639 37.3333 14.0806 36.8524 11.85 35.8905C9.61946 34.9274 7.67917 33.6208 6.02918 31.9708C4.37917 30.3208 3.07323 28.3806 2.11134 26.15C1.14823 23.9194 0.666677 21.5361 0.666677 19C0.666677 16.4639 1.14823 14.0806 2.11135 11.85C3.07323 9.61945 4.37918 7.67916 6.02918 6.02917C7.67918 4.37916 9.61946 3.07322 11.85 2.11133C14.0806 1.14822 16.4639 0.666667 19 0.666667ZM19 4.33334C14.9056 4.33333 11.4375 5.75417 8.59585 8.59584C5.75418 11.4375 4.33335 14.9056 4.33335 19C4.33334 23.0944 5.75418 26.5625 8.59584 29.4042C11.4375 32.2458 14.9056 33.6667 19 33.6667C23.0945 33.6667 26.5625 32.2458 29.4042 29.4042C32.2458 26.5625 33.6667 23.0944 33.6667 19C33.6667 14.9056 32.2458 11.4375 29.4042 8.59584C26.5625 5.75417 23.0945 4.33334 19 4.33334Z" fill="black"/>
</svg>
