<svg width="7" height="24" viewBox="0 0 7 24" fill="none" xmlns="http://www.w3.org/2000/svg">
<path d="M6.66057 8.47L0.935573 9.1875L0.730574 10.1375L1.85557 10.345C2.59057 10.52 2.73557 10.785 2.57557 11.5175L0.730574 20.1875C0.245574 22.43 0.993074 23.485 2.75057 23.485C4.11307 23.485 5.69557 22.855 6.41307 21.99L6.63307 20.95C6.13307 21.39 5.40307 21.565 4.91807 21.565C4.23057 21.565 3.98057 21.0825 4.15807 20.2325L6.66057 8.47ZM6.83557 3.25C6.83557 3.91304 6.57218 4.54893 6.10334 5.01777C5.6345 5.48661 4.99861 5.75 4.33557 5.75C3.67253 5.75 3.03665 5.48661 2.56781 5.01777C2.09897 4.54893 1.83557 3.91304 1.83557 3.25C1.83557 2.58696 2.09897 1.95107 2.56781 1.48223C3.03665 1.01339 3.67253 0.75 4.33557 0.75C4.99861 0.75 5.6345 1.01339 6.10334 1.48223C6.57218 1.95107 6.83557 2.58696 6.83557 3.25Z" fill="white"/>
</svg>
