<svg xmlns="http://www.w3.org/2000/svg" width="20" height="20" xmlns:v="https://vecta.io/nano"><path fill-rule="evenodd" d="M10 0c5.634 0 10 4.128 10 9.701s-4.366 9.7-10 9.7c-1.012 0-1.985-.133-2.895-.385-.07-.017-.14-.027-.21-.027-.11 0-.22.023-.324.069h0l-1.984.875c-.106.047-.216.067-.323.067-.412 0-.786-.324-.801-.776h0l-.053-1.777a.81.81 0 0 0-.27-.57C1.195 15.136 0 12.616 0 9.701 0 4.128 4.365 0 10 0zm5.315 6.834l-3.154 2.395c-.214.16-.508.162-.724.001L9.103 7.479a1.5 1.5 0 0 0-2.169.4l-2.939 4.659a.48.48 0 0 0 .689.633l3.155-2.395a.6.6 0 0 1 .722-.002l2.336 1.754a1.5 1.5 0 0 0 2.169-.401l2.938-4.659a.48.48 0 0 0-.689-.632z" fill="#fff"/></svg>