<svg width="28" height="28" viewBox="0 0 28 28" fill="none" xmlns="http://www.w3.org/2000/svg" >
<path d="M14 24.6667C8.12002 24.6667 3.33335 19.88 3.33335 14C3.33335 8.11999 8.12002 3.33332 14 3.33332C19.88 3.33332 24.6667 8.11999 24.6667 14C24.6667 19.88 19.88 24.6667 14 24.6667ZM14 0.666656C12.2491 0.666656 10.5152 1.01153 8.89757 1.6816C7.2799 2.35166 5.81004 3.33379 4.57193 4.5719C2.07144 7.07238 0.666687 10.4638 0.666687 14C0.666687 17.5362 2.07144 20.9276 4.57193 23.4281C5.81004 24.6662 7.2799 25.6483 8.89757 26.3184C10.5152 26.9884 12.2491 27.3333 14 27.3333C17.5362 27.3333 20.9276 25.9286 23.4281 23.4281C25.9286 20.9276 27.3334 17.5362 27.3334 14C27.3334 12.249 26.9885 10.5152 26.3184 8.89754C25.6484 7.27987 24.6662 5.81001 23.4281 4.5719C22.19 3.33379 20.7201 2.35166 19.1025 1.6816C17.4848 1.01153 15.751 0.666656 14 0.666656ZM15.3334 7.33332H12.6667V12.6667H7.33335V15.3333H12.6667V20.6667H15.3334V15.3333H20.6667V12.6667H15.3334V7.33332Z" fill="#ec2c00"/>
</svg>
