<svg xmlns="http://www.w3.org/2000/svg" width="20" height="20" xmlns:v="https://vecta.io/nano"><path fill-rule="evenodd" d="M11.287 0l2.843.061c1.063.047 1.79.219 2.427.465.664.25 1.27.645 1.77 1.153a4.88 4.88 0 0 1 1.157 1.774c.246.633.418 1.364.465 2.427l.025.616.006.193.019 1.674v.395.218 1.574.248l-.001.45-.022 1.971-.006.194-.003.096-.008.194-.018.422c-.047 1.063-.219 1.79-.465 2.427-.52 1.344-1.583 2.407-2.927 2.927-.633.246-1.364.418-2.427.465l-.712.029-.194.006-1.971.022-.45.001h-.248-1.094-.248l-.45-.001-1.971-.022-.194-.006-.712-.029c-1.063-.047-1.79-.219-2.427-.465-.664-.25-1.27-.645-1.77-1.153A4.93 4.93 0 0 1 .522 16.55c-.246-.633-.418-1.364-.465-2.427l-.018-.422-.008-.194-.003-.096-.006-.194L0 11.246V8.717l.061-2.842C.108 4.812.28 4.085.526 3.448c.25-.664.645-1.27 1.153-1.77A4.88 4.88 0 0 1 3.453.522C4.086.276 4.817.104 5.88.057l.422-.018.194-.008.096-.003.194-.006L8.758 0zm-.468 1.816H9.204l-2.311.022-.198.006-.726.03c-.973.043-1.505.207-1.856.344-.434.16-.825.414-1.149.746a3.04 3.04 0 0 0-.75 1.149c-.137.352-.301.879-.344 1.856l-.058 2.999v2.083l.022 2.076.006.198.03.726c.043.973.207 1.504.344 1.856a3.11 3.11 0 0 0 .747 1.149 3.08 3.08 0 0 0 1.149.746c.352.137.879.301 1.856.344l.528.023.196.007 2.275.028h2.083l2.274-.028.196-.007.53-.023c.973-.043 1.505-.207 1.856-.344a3.32 3.32 0 0 0 1.899-1.899c.137-.352.301-.879.344-1.856l.058-3.23V9.202l-.058-3.233c-.043-.973-.207-1.504-.344-1.856a3.11 3.11 0 0 0-.747-1.149c-.32-.332-.715-.586-1.149-.746-.352-.137-.879-.301-1.856-.344l-.626-.026-.195-.007-2.412-.025zm-.82 3.183c2.761 0 5 2.24 5 5s-2.24 5-5 5-5-2.24-5-5 2.24-5 5-5zm0 1.757c-1.791 0-3.244 1.453-3.244 3.244s1.453 3.244 3.244 3.244 3.244-1.453 3.244-3.244-1.453-3.244-3.244-3.244zm5-3.007a1.25 1.25 0 1 1 0 2.5 1.25 1.25 0 1 1 0-2.5z" fill="#fff"/></svg>