<svg xmlns="http://www.w3.org/2000/svg" viewBox="0 0 75.294 75.294" width="20" height="20" xmlns:v="https://vecta.io/nano"><path d="M66.097 12.089h-56.9A9.21 9.21 0 0 0 0 21.286v32.722a9.21 9.21 0 0 0 9.197 9.197h56.9a9.21 9.21 0 0 0 9.197-9.197V21.287a9.21 9.21 0 0 0-9.197-9.198zm-4.494 6L37.647 33.523 13.691 18.089h47.912zm4.494 39.117h-56.9A3.2 3.2 0 0 1 6 54.009V21.457l29.796 19.16c.04.025.083.042.124.065a3.27 3.27 0 0 0 .131.069c.231.119.469.215.712.278.025.007.05.01.075.016a3.52 3.52 0 0 0 .807.102c.276 0 .546-.038.813-.102l.075-.016c.243-.063.48-.159.712-.278a3.27 3.27 0 0 0 .131-.069l.124-.065 29.796-19.16v32.551c-.001 1.763-1.436 3.198-3.199 3.198z" fill="#fff"/></svg>