<svg xmlns="http://www.w3.org/2000/svg" width="100" height="100" xmlns:v="https://vecta.io/nano"><path fill="#f7f0ed" d="M37.5 21.4s-2.6.6-4 1.7c-2.2 1.4-4 4.5-4.9 8 .3 9 3.6 19.2 9.9 28.6 5.9 8.7 13.3 15 20.7 18.7h0c3.9.5 7.3-.5 9.4-1.9 1.1-.8 2.6-2.8 2.6-2.8 1.1-1.1-.6-4.5-3.9-7.6-3.2-3.1-6.8-4.8-7.9-3.7l-4.6 3.1c-.2.2-.5.2-.6.2l-1.5-.2c-.3 0-.5-.2-.8-.3l-1.1-.9c-.2 0-.2-.2-.2-.3l-7.1-10.8-5.9-8.7c.2-.2.2-.3.2-.5l-.3-1.4V42l.3-.9c0-.3.3-.5.5-.6l4.8-2.9c1.4-.6 1.4-4.6-.2-9.1s-4-7.5-5.4-7.1z"/></svg>