<?xml version="1.0" encoding="utf-8"?>
<!-- Generator: Adobe Illustrator 26.2.1, SVG Export Plug-In . SVG Version: 6.00 Build 0)  -->
<svg version="1.1" id="Layer_2" xmlns="http://www.w3.org/2000/svg" xmlns:xlink="http://www.w3.org/1999/xlink" x="0px" y="0px"
	 viewBox="0 0 482.1 482.1" style="enable-background:new 0 0 482.1 482.1;" xml:space="preserve">
<style type="text/css">
	.st0{fill:#FFFFFF;}
</style>
<g>
	<path class="st0" d="M238.5,4.9C107.9,4.9,2,110.8,2,241.4s106,236.5,236.5,236.5S475,371.9,475,241.4S369,4.9,238.5,4.9z
		 M238.5,41.3c110.5,0,200.1,89.7,200.1,200.1s-89.7,200.1-200.1,200.1S38.4,351.9,38.4,241.4S128,41.3,238.5,41.3z"/>
	<path class="st0" d="M274.9,136.8c0,22.6-18.3,40.9-40.9,40.9S193,159.4,193,136.8c0-22.6,18.3-40.9,40.9-40.9
		S274.9,114.2,274.9,136.8z"/>
	<path class="st0" d="M277.3,354c-0.3,9.9,4.4,12.7,15.7,13.9l18.2,0.4v18.6H169.1v-18.6l20-0.4c12-0.4,14.9-5,15.7-13.9V241.9
		c0.1-17.8-22.9-15-39.1-14.4V209l111.6-4"/>
</g>
</svg>
