<?xml version="1.0" encoding="utf-8"?>
<!-- Generator: Adobe Illustrator 18.1.1, SVG Export Plug-In . SVG Version: 6.00 Build 0)  -->
<svg version="1.1" id="Layer_1" xmlns="http://www.w3.org/2000/svg" xmlns:xlink="http://www.w3.org/1999/xlink" x="0px" y="0px"
	 width="58px" height="58px" viewBox="-12 172 58 58" enable-background="new -12 172 58 58" xml:space="preserve">
<g>
	<circle fill="#0082CA" cx="17" cy="201" r="28"/>
	<path fill="#FFFFFF" d="M35.2,202.3c-0.2-0.2-0.3-0.3-0.6-0.6c-0.1-0.1-0.1-0.1-0.2-0.1c-0.1-0.2-0.4-0.4-0.6-0.7
		c-0.6-0.6-1.4-1.5-2.4-2.6s-2.2-2.2-3.4-3.5c-0.3-0.3-0.6-0.6-0.9-1l12.5-9.4l-0.4-0.6l-12.6,9.5c-0.8-0.8-1.7-1.7-2.5-2.6
		c-0.7-0.7-1.4-1.4-2-2.1c-0.3-0.3-0.7-0.7-1-1c-0.2-0.2-0.3-0.3-0.5-0.5l-0.2-0.1l-0.1-0.1l-0.1-0.1h-0.1H20l-0.2-0.2
		c-0.1-0.1-0.1-0.1-0.1-0.1l-0.2-0.1c-0.2-0.1-0.5-0.3-0.7-0.4s-0.5-0.2-0.7-0.2s-0.5-0.1-0.7-0.1c-1-0.1-1.9,0.2-2.6,0.6
		c-0.3,0.2-0.6,0.4-0.9,0.6s-0.6,0.4-0.8,0.6c-0.4,0.4-0.9,0.7-1.2,1.1c-0.2,0.2-0.4,0.4-0.5,0.6c-0.2-0.4-0.6-0.7-0.9-1.1
		c-0.2-0.1-0.3-0.3-0.6-0.4c-0.2-0.1-0.4-0.3-0.6-0.4l-0.6-0.4L8,186.6c-0.9-0.4-1.9-0.6-2.9-0.6c-2-0.1-4,0.7-5.5,1.9
		c-0.4,0.3-0.7,0.7-1.1,1.1c-0.3,0.4-0.6,0.8-0.9,1.2c-0.5,0.9-0.8,1.8-1,2.8c-0.2,2,0.2,4,1.2,5.7c0.2,0.4,0.6,0.8,0.9,1.2
		c0.2,0.2,0.3,0.3,0.6,0.6c0.1,0.1,0.1,0.1,0.2,0.1c0.1,0.2,0.4,0.4,0.6,0.7c0.6,0.6,1.4,1.5,2.4,2.6s2.2,2.2,3.4,3.5
		c0.3,0.3,0.6,0.6,0.9,1l-12.4,9.1l0.4,0.6l12.6-9.5c0.8,0.8,1.7,1.7,2.5,2.6c0.7,0.7,1.4,1.4,2,2.1c0.3,0.3,0.7,0.7,1,1
		c0.2,0.2,0.3,0.3,0.5,0.5l0.2,0.2l0.1,0.1l0.1,0.1h0.1l0.1,0.1l0.2,0.2c0.1,0.1,0.1,0.1,0.1,0.1l0.2,0.1c0.2,0.1,0.5,0.3,0.7,0.4
		s0.5,0.2,0.7,0.2s0.5,0.1,0.7,0.1c1,0.1,1.9-0.2,2.6-0.6c0.3-0.2,0.6-0.4,0.9-0.6s0.6-0.4,0.8-0.6c0.4-0.4,0.9-0.7,1.2-1.1
		c0.2-0.2,0.4-0.4,0.5-0.6c0.2,0.4,0.6,0.7,0.9,1.1c0.2,0.1,0.3,0.3,0.6,0.4c0.2,0.1,0.4,0.3,0.6,0.4l0.6,0.4l0.7,0.3
		c0.9,0.4,1.9,0.6,2.9,0.6c2,0.1,4-0.7,5.5-1.9c0.4-0.3,0.7-0.7,1.1-1.1s0.6-0.8,0.9-1.2c0.5-0.9,0.8-1.8,1-2.8c0.2-2-0.2-4-1.2-5.7
		C35.9,203.1,35.6,202.7,35.2,202.3z M7.1,206c-1.2-1.3-2.5-2.5-3.5-3.5c-0.2-0.2-0.3-0.3-0.5-0.5c1.7,0.4,3.6,0.1,5.2-0.6
		c0.9-0.4,1.7-1,2.3-1.7c0.7-0.7,1.2-1.5,1.6-2.4l-0.6-0.2c-0.4,0.7-0.9,1.5-1.6,2.1c-0.6,0.6-1.4,1.1-2.2,1.4
		c-1.6,0.7-3.4,0.7-5,0.2c-0.8-0.2-1.6-0.7-2.2-1.1c-0.2-0.1-0.3-0.3-0.5-0.4c-0.1-0.1-0.3-0.2-0.4-0.4c-0.2-0.3-0.6-0.6-0.7-1
		c-0.9-1.4-1.2-3.1-0.9-4.7c0.1-0.8,0.4-1.6,0.8-2.3c0.2-0.4,0.4-0.7,0.7-1c0.2-0.3,0.6-0.6,0.9-0.9c1.2-1.1,2.9-1.6,4.5-1.7
		c0.8,0,1.7,0.1,2.4,0.4l0.6,0.2l0.6,0.3c0.2,0.1,0.3,0.2,0.5,0.3c0.2,0.1,0.4,0.2,0.5,0.4c0.6,0.5,1.2,1.2,1.6,1.9
		c0.3,0.6,0.6,1.2,0.7,1.9l-6.1-0.1v0.6l6.7,0.2l0.5-0.1v-0.4l0,0c-0.1-0.6-0.4-1.9-0.8-2.7c-0.2-0.2-0.2-0.4-0.4-0.6
		c0.2-0.1,0.4-0.3,0.7-0.6c0.3-0.2,0.7-0.6,1.2-0.9c0.2-0.1,0.5-0.3,0.7-0.4c0.2-0.2,0.6-0.3,0.9-0.5c0.6-0.2,1.2-0.4,1.9-0.3
		c0.2,0,0.3,0.1,0.5,0.1c0.2,0.1,0.3,0.1,0.5,0.2s0.3,0.2,0.4,0.2l0.1,0.1c0.1,0,0.1,0.1,0.1,0.1l0.2,0.2c1.2,1.3,2.6,2.7,3.9,4
		c0.8,0.8,1.6,1.6,2.4,2.4l-17.1,13C7.9,206.8,7.5,206.4,7.1,206z M36,209c-0.1,0.8-0.4,1.6-0.8,2.3c-0.2,0.4-0.4,0.7-0.7,1
		c-0.3,0.3-0.6,0.6-0.9,0.9c-1.2,1.1-2.9,1.6-4.5,1.7c-0.8,0-1.7-0.1-2.4-0.4l-0.6-0.2l-0.6-0.3c-0.2-0.1-0.3-0.2-0.5-0.3
		c-0.2-0.1-0.4-0.2-0.5-0.4c-0.6-0.5-1.2-1.2-1.6-1.9c-0.3-0.6-0.6-1.2-0.8-1.9l6.2-0.2v-0.6h-6.7l-0.6-0.2l0.1,0.6l0,0
		c0.1,1.2,0.3,1.9,0.7,2.7c0.1,0.2,0.2,0.4,0.3,0.6c-0.2,0.1-0.4,0.3-0.7,0.6c-0.3,0.3-0.7,0.6-1.2,0.9c-0.2,0.1-0.5,0.3-0.7,0.4
		c-0.2,0.2-0.6,0.3-0.9,0.5c-0.6,0.2-1.2,0.4-1.9,0.3c-0.2,0-0.3-0.1-0.5-0.1c-0.2-0.1-0.3-0.1-0.5-0.2s-0.3-0.2-0.4-0.2l-0.1-0.1
		c-0.1,0-0.1-0.1-0.1-0.1l-0.2-0.2c-1.2-1.3-2.6-2.7-3.9-4c-0.8-0.8-1.6-1.6-2.4-2.4L25.9,195c0.4,0.4,0.7,0.7,1.1,1.1
		c1.2,1.3,2.5,2.5,3.5,3.5c0.2,0.2,0.3,0.3,0.5,0.5c-1.7-0.4-3.6-0.1-5.2,0.6c-0.9,0.4-1.7,1-2.3,1.7c-0.7,0.7-1.2,1.5-1.6,2.4
		l0.6,0.2c0.4-0.7,0.9-1.5,1.6-2.1c0.6-0.6,1.4-1.1,2.2-1.4c1.6-0.7,3.4-0.7,5-0.2c0.8,0.2,1.6,0.7,2.2,1.1c0.2,0.1,0.3,0.3,0.5,0.4
		c0.1,0.1,0.3,0.2,0.4,0.4c0.2,0.3,0.6,0.6,0.7,1C35.9,205.7,36.2,207.3,36,209z"/>
</g>
</svg>
