<svg width="34" height="34" viewBox="0 0 34 34" fill="none" xmlns="http://www.w3.org/2000/svg">
<path d="M17 12C15.6739 12 14.4022 12.5268 13.4645 13.4645C12.5268 14.4022 12 15.674 12 17C12 18.3261 12.5268 19.5979 13.4645 20.5356C14.4022 21.4733 15.6739 22 17 22C18.3261 22 19.5979 21.4733 20.5355 20.5356C21.4732 19.5979 22 18.3261 22 17C22 15.674 21.4732 14.4022 20.5355 13.4645C19.5979 12.5268 18.3261 12 17 12ZM17 8.66671C19.2101 8.66671 21.3298 9.54468 22.8926 11.1075C24.4554 12.6703 25.3333 14.7899 25.3333 17C25.3333 19.2102 24.4554 21.3298 22.8926 22.8926C21.3298 24.4554 19.2101 25.3334 17 25.3334C14.7899 25.3334 12.6702 24.4554 11.1074 22.8926C9.54464 21.3298 8.66667 19.2102 8.66667 17C8.66667 14.7899 9.54464 12.6703 11.1074 11.1075C12.6702 9.54468 14.7899 8.66671 17 8.66671ZM27.8333 8.25004C27.8333 8.80258 27.6138 9.33248 27.2231 9.72318C26.8324 10.1139 26.3025 10.3334 25.75 10.3334C25.1975 10.3334 24.6676 10.1139 24.2769 9.72318C23.8862 9.33248 23.6667 8.80258 23.6667 8.25004C23.6667 7.69751 23.8862 7.1676 24.2769 6.7769C24.6676 6.3862 25.1975 6.16671 25.75 6.16671C26.3025 6.16671 26.8324 6.3862 27.2231 6.7769C27.6138 7.1676 27.8333 7.69751 27.8333 8.25004ZM17 3.66671C12.8767 3.66671 12.2033 3.67837 10.285 3.76337C8.97834 3.82504 8.10167 4.00004 7.28834 4.31671C6.6077 4.5666 5.99236 4.96714 5.48834 5.48837C4.96668 5.99237 4.56559 6.60768 4.315 7.28837C3.99834 8.10504 3.82334 8.98004 3.76334 10.285C3.67667 12.125 3.66667 12.7684 3.66667 17C3.66667 21.1234 3.67834 21.7967 3.76334 23.715C3.825 25.02 4 25.8984 4.315 26.71C4.59834 27.435 4.93167 27.9567 5.485 28.51C6.04667 29.07 6.56834 29.405 7.285 29.6817C8.10834 30 8.985 30.1767 10.285 30.2367C12.125 30.3234 12.7683 30.3334 17 30.3334C21.1233 30.3334 21.7967 30.3217 23.715 30.2367C25.0183 30.175 25.8967 30 26.71 29.685C27.3896 29.4339 28.0046 29.0342 28.51 28.515C29.0717 27.9534 29.4067 27.4317 29.6833 26.715C30 25.8934 30.1767 25.015 30.2367 23.715C30.3233 21.875 30.3333 21.2317 30.3333 17C30.3333 12.8767 30.3217 12.2034 30.2367 10.285C30.175 8.98171 30 8.10171 29.6833 7.28837C29.4322 6.60838 29.0318 5.99331 28.5117 5.48837C28.0079 4.96645 27.3925 4.56532 26.7117 4.31504C25.895 3.99837 25.0183 3.82337 23.715 3.76337C21.875 3.67671 21.2317 3.66671 17 3.66671ZM17 0.333374C21.5283 0.333374 22.0933 0.350041 23.87 0.433374C25.645 0.516707 26.8533 0.795041 27.9167 1.20837C29.0167 1.63171 29.9433 2.20504 30.87 3.13004C31.7175 3.9632 32.3733 4.97102 32.7917 6.08337C33.2033 7.14504 33.4833 8.35504 33.5667 10.13C33.645 11.9067 33.6667 12.4717 33.6667 17C33.6667 21.5284 33.65 22.0934 33.5667 23.87C33.4833 25.645 33.2033 26.8534 32.7917 27.9167C32.3745 29.0297 31.7185 30.0377 30.87 30.87C30.0366 31.7172 29.0289 32.373 27.9167 32.7917C26.855 33.2034 25.645 33.4834 23.87 33.5667C22.0933 33.645 21.5283 33.6667 17 33.6667C12.4717 33.6667 11.9067 33.65 10.13 33.5667C8.355 33.4834 7.14667 33.2034 6.08334 32.7917C4.97055 32.3742 3.96255 31.7183 3.13 30.87C2.28235 30.037 1.62655 29.0292 1.20834 27.9167C0.795003 26.855 0.516669 25.645 0.433336 23.87C0.355002 22.0934 0.333336 21.5284 0.333336 17C0.333336 12.4717 0.350002 11.9067 0.433336 10.13C0.516669 8.35337 0.795003 7.14671 1.20834 6.08337C1.6254 4.97034 2.28134 3.96224 3.13 3.13004C3.96279 2.28209 4.97072 1.62626 6.08334 1.20837C7.14667 0.795041 8.35334 0.516707 10.13 0.433374C11.9067 0.355041 12.4717 0.333374 17 0.333374Z" fill="black"/>
</svg>
