<svg width="34" height="28" viewBox="0 0 34 28" fill="none" xmlns="http://www.w3.org/2000/svg">
<path d="M3.66667 27.3333C2.75 27.3333 1.96556 27.0072 1.31334 26.355C0.660003 25.7016 0.333336 24.9166 0.333336 24V3.99996C0.333336 3.08329 0.660003 2.29885 1.31334 1.64663C1.96556 0.993292 2.75 0.666626 3.66667 0.666626H30.3333C31.25 0.666626 32.035 0.993292 32.6883 1.64663C33.3406 2.29885 33.6667 3.08329 33.6667 3.99996V24C33.6667 24.9166 33.3406 25.7016 32.6883 26.355C32.035 27.0072 31.25 27.3333 30.3333 27.3333H3.66667ZM30.3333 7.33329L17.875 15.125C17.7361 15.2083 17.59 15.2705 17.4367 15.3116C17.2844 15.3538 17.1389 15.375 17 15.375C16.8611 15.375 16.7156 15.3538 16.5633 15.3116C16.41 15.2705 16.2639 15.2083 16.125 15.125L3.66667 7.33329V24H30.3333V7.33329ZM17 12.3333L30.3333 3.99996H3.66667L17 12.3333ZM3.66667 7.74996V5.29163V5.33329V5.31163V7.74996Z" fill="black"/>
</svg>
