<?xml version="1.0" encoding="utf-8"?>
<!-- Generator: Adobe Illustrator 18.1.0, SVG Export Plug-In . SVG Version: 6.00 Build 0)  -->
<svg version="1.1" id="Layer_1" xmlns="http://www.w3.org/2000/svg" xmlns:xlink="http://www.w3.org/1999/xlink" x="0px" y="0px"
	 width="338px" height="58px" viewBox="-312 252 338 58" enable-background="new -312 252 338 58" xml:space="preserve">
<g>
	<circle fill="#0082CA" cx="-283" cy="281" r="28"/>
	<path fill="#FFFFFF" d="M-264.8,282.3c-0.2-0.2-0.3-0.3-0.6-0.6c-0.1-0.1-0.1-0.1-0.2-0.1c-0.1-0.2-0.4-0.4-0.6-0.7
		c-0.6-0.6-1.4-1.5-2.4-2.6c-1-1.1-2.2-2.2-3.4-3.5c-0.3-0.3-0.6-0.6-0.9-1l12.5-9.4l-0.4-0.6l-12.6,9.5c-0.8-0.8-1.7-1.7-2.5-2.6
		c-0.7-0.7-1.4-1.4-2-2.1c-0.3-0.3-0.7-0.7-1-1c-0.2-0.2-0.3-0.3-0.5-0.5l-0.2-0.1l-0.1-0.1l-0.1-0.1h-0.1h-0.1l-0.2-0.2
		c-0.1-0.1-0.1-0.1-0.1-0.1l-0.2-0.1c-0.2-0.1-0.5-0.3-0.7-0.4c-0.2-0.1-0.5-0.2-0.7-0.2c-0.2,0-0.5-0.1-0.7-0.1
		c-1-0.1-1.9,0.2-2.6,0.6c-0.3,0.2-0.6,0.4-0.9,0.6c-0.3,0.2-0.6,0.4-0.8,0.6c-0.4,0.4-0.9,0.7-1.2,1.1c-0.2,0.2-0.4,0.4-0.5,0.6
		c-0.2-0.4-0.6-0.7-0.9-1.1c-0.2-0.1-0.3-0.3-0.6-0.4c-0.2-0.1-0.4-0.3-0.6-0.4l-0.6-0.4l-0.7-0.3c-0.9-0.4-1.9-0.6-2.9-0.6
		c-2-0.1-4,0.7-5.5,1.9c-0.4,0.3-0.7,0.7-1.1,1.1c-0.3,0.4-0.6,0.8-0.9,1.2c-0.5,0.9-0.8,1.8-1,2.8c-0.2,2,0.2,4,1.2,5.7
		c0.2,0.4,0.6,0.8,0.9,1.2c0.2,0.2,0.3,0.3,0.6,0.6c0.1,0.1,0.1,0.1,0.2,0.1c0.1,0.2,0.4,0.4,0.6,0.7c0.6,0.6,1.4,1.5,2.4,2.6
		s2.2,2.2,3.4,3.5c0.3,0.3,0.6,0.6,0.9,1l-12.4,9.1l0.4,0.6l12.6-9.5c0.8,0.8,1.7,1.7,2.5,2.6c0.7,0.7,1.4,1.4,2,2.1
		c0.3,0.3,0.7,0.7,1,1c0.2,0.2,0.3,0.3,0.5,0.5l0.2,0.2l0.1,0.1l0.1,0.1h0.1l0.1,0.1l0.2,0.2c0.1,0.1,0.1,0.1,0.1,0.1l0.2,0.1
		c0.2,0.1,0.5,0.3,0.7,0.4c0.2,0.1,0.5,0.2,0.7,0.2c0.2,0,0.5,0.1,0.7,0.1c1,0.1,1.9-0.2,2.6-0.6c0.3-0.2,0.6-0.4,0.9-0.6
		c0.3-0.2,0.6-0.4,0.8-0.6c0.4-0.4,0.9-0.7,1.2-1.1c0.2-0.2,0.4-0.4,0.5-0.6c0.2,0.4,0.6,0.7,0.9,1.1c0.2,0.1,0.3,0.3,0.6,0.4
		c0.2,0.1,0.4,0.3,0.6,0.4l0.6,0.4l0.7,0.3c0.9,0.4,1.9,0.6,2.9,0.6c2,0.1,4-0.7,5.5-1.9c0.4-0.3,0.7-0.7,1.1-1.1s0.6-0.8,0.9-1.2
		c0.5-0.9,0.8-1.8,1-2.8c0.2-2-0.2-4-1.2-5.7C-264.1,283.1-264.4,282.7-264.8,282.3z M-292.9,286c-1.2-1.3-2.5-2.5-3.5-3.5
		c-0.2-0.2-0.3-0.3-0.5-0.5c1.7,0.4,3.6,0.1,5.2-0.6c0.9-0.4,1.7-1,2.3-1.7c0.7-0.7,1.2-1.5,1.6-2.4l-0.6-0.2
		c-0.4,0.7-0.9,1.5-1.6,2.1c-0.6,0.6-1.4,1.1-2.2,1.4c-1.6,0.7-3.4,0.7-5,0.2c-0.8-0.2-1.6-0.7-2.2-1.1c-0.2-0.1-0.3-0.3-0.5-0.4
		c-0.1-0.1-0.3-0.2-0.4-0.4c-0.2-0.3-0.6-0.6-0.7-1c-0.9-1.4-1.2-3.1-0.9-4.7c0.1-0.8,0.4-1.6,0.8-2.3c0.2-0.4,0.4-0.7,0.7-1
		c0.2-0.3,0.6-0.6,0.9-0.9c1.2-1.1,2.9-1.6,4.5-1.7c0.8,0,1.7,0.1,2.4,0.4l0.6,0.2l0.6,0.3c0.2,0.1,0.3,0.2,0.5,0.3
		c0.2,0.1,0.4,0.2,0.5,0.4c0.6,0.5,1.2,1.2,1.6,1.9c0.3,0.6,0.6,1.2,0.7,1.9l-6.1-0.1v0.6l6.7,0.2l0.5-0.1v-0.4l0,0
		c-0.1-0.6-0.4-1.9-0.8-2.7c-0.2-0.2-0.2-0.4-0.4-0.6c0.2-0.1,0.4-0.3,0.7-0.6c0.3-0.2,0.7-0.6,1.2-0.9c0.2-0.1,0.5-0.3,0.7-0.4
		c0.2-0.2,0.6-0.3,0.9-0.5c0.6-0.2,1.2-0.4,1.9-0.3c0.2,0,0.3,0.1,0.5,0.1c0.2,0.1,0.3,0.1,0.5,0.2c0.2,0.1,0.3,0.2,0.4,0.2l0.1,0.1
		c0.1,0,0.1,0.1,0.1,0.1l0.2,0.2c1.2,1.3,2.6,2.7,3.9,4c0.8,0.8,1.6,1.6,2.4,2.4l-17.1,13C-292.1,286.8-292.5,286.4-292.9,286z
		 M-264,289c-0.1,0.8-0.4,1.6-0.8,2.3c-0.2,0.4-0.4,0.7-0.7,1c-0.3,0.3-0.6,0.6-0.9,0.9c-1.2,1.1-2.9,1.6-4.5,1.7
		c-0.8,0-1.7-0.1-2.4-0.4l-0.6-0.2l-0.6-0.3c-0.2-0.1-0.3-0.2-0.5-0.3c-0.2-0.1-0.4-0.2-0.5-0.4c-0.6-0.5-1.2-1.2-1.6-1.9
		c-0.3-0.6-0.6-1.2-0.8-1.9l6.2-0.2v-0.6h-6.7l-0.6-0.2l0.1,0.6l0,0c0.1,1.2,0.3,1.9,0.7,2.7c0.1,0.2,0.2,0.4,0.3,0.6
		c-0.2,0.1-0.4,0.3-0.7,0.6c-0.3,0.3-0.7,0.6-1.2,0.9c-0.2,0.1-0.5,0.3-0.7,0.4c-0.2,0.2-0.6,0.3-0.9,0.5c-0.6,0.2-1.2,0.4-1.9,0.3
		c-0.2,0-0.3-0.1-0.5-0.1c-0.2-0.1-0.3-0.1-0.5-0.2c-0.2-0.1-0.3-0.2-0.4-0.2l-0.1-0.1c-0.1,0-0.1-0.1-0.1-0.1l-0.2-0.2
		c-1.2-1.3-2.6-2.7-3.9-4c-0.8-0.8-1.6-1.6-2.4-2.4l17.3-12.8c0.4,0.4,0.7,0.7,1.1,1.1c1.2,1.3,2.5,2.5,3.5,3.5
		c0.2,0.2,0.3,0.3,0.5,0.5c-1.7-0.4-3.6-0.1-5.2,0.6c-0.9,0.4-1.7,1-2.3,1.7c-0.7,0.7-1.2,1.5-1.6,2.4l0.6,0.2
		c0.4-0.7,0.9-1.5,1.6-2.1c0.6-0.6,1.4-1.1,2.2-1.4c1.6-0.7,3.4-0.7,5-0.2c0.8,0.2,1.6,0.7,2.2,1.1c0.2,0.1,0.3,0.3,0.5,0.4
		c0.1,0.1,0.3,0.2,0.4,0.4c0.2,0.3,0.6,0.6,0.7,1C-264.1,285.7-263.8,287.3-264,289z"/>
</g>
<g>
	<path fill="#333E48" d="M-234.4,281.8c0,2.6-0.6,4.5-1.9,6c-1.2,1.4-2.9,2.2-5.1,2.2c-1.4,0-2.6-0.3-3.6-1
		c-1.1-0.7-1.9-1.6-2.4-2.9c-0.6-1.2-0.8-2.7-0.8-4.3c0-2.6,0.6-4.5,1.9-6c1.2-1.4,2.9-2.1,5.1-2.1c2.2,0,3.9,0.7,5,2.2
		C-235,277.3-234.4,279.3-234.4,281.8z M-246.8,281.8c0,2.2,0.5,3.9,1.4,5c0.9,1.2,2.3,1.8,4,1.8c1.7,0,3-0.6,4-1.8
		c0.9-1.2,1.4-2.9,1.4-5c0-2.1-0.5-3.9-1.4-5c-0.9-1.2-2.3-1.8-4-1.8c-1.7,0-3,0.6-4,1.8C-246.3,278-246.8,279.6-246.8,281.8z"/>
	<path fill="#333E48" d="M-224.9,275.3h-3.7v14.4h-1.4v-14.4h-2.9v-0.8l2.9-0.6v-1.2c0-1.9,0.4-3.4,1.1-4.2c0.7-0.9,1.9-1.4,3.5-1.4
		c0.9,0,1.7,0.1,2.6,0.4l-0.3,1.2c-0.7-0.2-1.6-0.4-2.3-0.4c-1.1,0-1.9,0.3-2.4,1c-0.5,0.7-0.7,1.7-0.7,3.2v1.5h3.7L-224.9,275.3
		L-224.9,275.3z M-216,275.3h-3.7v14.4h-1.4v-14.4h-2.9v-0.8l2.9-0.6v-1.2c0-1.9,0.4-3.4,1.1-4.2c0.7-0.9,1.9-1.4,3.5-1.4
		c0.9,0,1.7,0.1,2.6,0.4l-0.3,1.2c-0.7-0.2-1.6-0.4-2.3-0.4c-1.1,0-1.9,0.3-2.4,1c-0.5,0.7-0.7,1.7-0.7,3.2v1.5h3.6V275.3
		L-216,275.3z"/>
	<path fill="#333E48" d="M-203.1,285.6c0,1.4-0.6,2.5-1.6,3.2c-1.1,0.7-2.6,1.1-4.5,1.1c-2.1,0-3.7-0.3-5-1v-1.6
		c1.6,0.8,3.2,1.2,5,1.2c1.6,0,2.7-0.2,3.5-0.7s1.2-1.2,1.2-2.1c0-0.8-0.3-1.4-0.9-2c-0.6-0.6-1.7-1.1-3.2-1.6
		c-1.6-0.6-2.7-1.1-3.3-1.5s-1.1-0.9-1.4-1.4s-0.5-1.1-0.5-1.9c0-1.2,0.5-2.1,1.5-2.8s2.4-1,4.1-1c1.7,0,3.3,0.3,4.8,0.9l-0.6,1.6
		c-1.6-0.6-3-0.9-4.3-0.9s-2.3,0.2-3,0.6c-0.7,0.4-1.1,1-1.1,1.7c0,0.8,0.3,1.5,0.9,2s1.7,1.1,3.4,1.6c1.4,0.5,2.4,1,3.1,1.4
		c0.6,0.4,1.1,0.9,1.4,1.4C-203.3,284.3-203.1,284.9-203.1,285.6z"/>
	<path fill="#333E48" d="M-188.2,289.7v-10.2c0-1.6-0.3-2.7-1-3.4c-0.7-0.7-1.7-1.1-3.1-1.1c-1.9,0-3.2,0.5-4.1,1.4
		s-1.3,2.5-1.3,4.6v8.6h-1.4v-22.4h1.4v7.2l-0.1,2h0.1c0.6-0.9,1.3-1.6,2.2-2.1c0.9-0.4,2-0.6,3.4-0.6c3.5,0,5.4,1.9,5.4,5.7v10.3
		C-186.7,289.7-188.2,289.7-188.2,289.7z"/>
	<path fill="#333E48" d="M-169.9,281.8c0,2.6-0.6,4.5-1.9,6c-1.2,1.4-2.9,2.2-5.1,2.2c-1.4,0-2.6-0.3-3.6-1
		c-1.1-0.7-1.9-1.6-2.4-2.9c-0.6-1.2-0.8-2.7-0.8-4.3c0-2.6,0.6-4.5,1.9-6s2.9-2.1,5.1-2.1s3.9,0.7,5,2.2
		C-170.5,277.3-169.9,279.3-169.9,281.8z M-182.3,281.8c0,2.2,0.5,3.9,1.4,5c0.9,1.2,2.3,1.8,4,1.8s3-0.6,4-1.8
		c0.9-1.2,1.4-2.9,1.4-5c0-2.1-0.5-3.9-1.4-5c-0.9-1.2-2.3-1.8-4-1.8s-3,0.6-4,1.8C-181.8,278-182.3,279.6-182.3,281.8z"/>
	<path fill="#333E48" d="M-159.9,273.7c0.7,0,1.4,0.1,2.1,0.2l-0.2,1.4c-0.7-0.2-1.3-0.2-2.1-0.2c-1.3,0-2.4,0.6-3.3,1.7
		c-0.9,1.1-1.3,2.6-1.3,4.3v8.7h-1.4V274h1.2l0.1,2.8h0.1c0.6-1.2,1.3-2,2.1-2.4C-161.9,274-160.9,273.7-159.9,273.7z"/>
	<path fill="#333E48" d="M-149.2,290c-2.3,0-4-0.7-5.4-2.1s-1.9-3.4-1.9-5.9s0.6-4.5,1.9-6s2.9-2.2,5-2.2c1.9,0,3.3,0.6,4.4,1.9
		c1.1,1.3,1.6,3,1.6,5.2v1.1h-11.3c0,2.2,0.5,3.8,1.5,4.9s2.4,1.7,4.2,1.7c0.9,0,1.7-0.1,2.4-0.2s1.6-0.4,2.6-0.8v1.3
		c-0.9,0.4-1.7,0.6-2.4,0.8C-147.5,289.9-148.4,290-149.2,290z M-149.7,275c-1.5,0-2.7,0.5-3.6,1.5c-0.9,1-1.4,2.4-1.6,4.3h9.7
		c0-1.8-0.4-3.2-1.2-4.2C-147.2,275.5-148.2,275-149.7,275z"/>
	<path fill="#333E48" d="M-138.8,274v10.1c0,1.6,0.3,2.7,1,3.4s1.7,1.1,3.1,1.1c1.9,0,3.2-0.5,4.1-1.4c0.9-0.9,1.3-2.5,1.3-4.6V274
		h1.4v15.7h-1.1l-0.2-2.2h-0.1c-1,1.6-2.8,2.4-5.4,2.4c-3.5,0-5.4-1.9-5.4-5.7V274H-138.8z"/>
	<path fill="#333E48" d="M-118.6,288.7c0.9,0,1.7-0.1,2.4-0.2v1.2c-0.7,0.2-1.5,0.4-2.4,0.4c-1.4,0-2.4-0.4-3-1.1s-1-1.9-1-3.5
		v-10.2h-2.4v-0.8l2.3-0.6l0.7-3.5h0.7v3.8h4.6v1.2h-4.7v9.9c0,1.2,0.2,2.1,0.6,2.7C-120.2,288.4-119.5,288.7-118.6,288.7z"/>
	<path fill="#333E48" d="M-107.9,273.7c1.1,0,2.1,0.2,2.9,0.6c0.8,0.4,1.6,1.1,2.2,2.1h0.1c-0.1-1.2-0.1-2.4-0.1-3.5v-5.7h1.4v22.5
		h-0.9l-0.4-2.4h-0.1c-1.2,1.8-2.9,2.7-5.1,2.7s-3.8-0.7-5-2c-1.1-1.4-1.7-3.3-1.7-5.9c0-2.7,0.6-4.8,1.7-6.2
		C-111.7,274.4-110,273.7-107.9,273.7z M-107.9,275c-1.7,0-3,0.6-3.9,1.8c-0.9,1.2-1.3,2.9-1.3,5.2c0,4.4,1.7,6.7,5.2,6.7
		c1.7,0,3-0.5,3.9-1.6c0.8-1.1,1.2-2.7,1.2-5.1v-0.2c0-2.4-0.4-4.2-1.2-5.2C-104.7,275.5-106,275-107.9,275z"/>
	<path fill="#333E48" d="M-87.2,289.7l-0.4-2.5h-0.1c-0.8,1-1.6,1.7-2.4,2.1c-0.8,0.4-1.8,0.6-2.9,0.6c-1.6,0-2.7-0.4-3.6-1.2
		c-0.9-0.8-1.3-1.9-1.3-3.3c0-1.6,0.6-2.7,1.9-3.5c1.3-0.8,3.1-1.3,5.5-1.4l3-0.1v-1.1c0-1.5-0.3-2.6-0.9-3.4
		c-0.6-0.7-1.6-1.1-2.9-1.1c-1.4,0-3,0.4-4.5,1.2l-0.6-1.2c1.7-0.8,3.4-1.2,5.1-1.2c1.7,0,3,0.4,3.9,1.4c0.9,0.9,1.3,2.3,1.3,4.2
		v10.5C-86.1,289.7-87.2,289.7-87.2,289.7z M-93,288.7c1.7,0,3-0.5,4-1.4c1-0.9,1.4-2.3,1.4-4v-1.6l-2.7,0.1
		c-2.2,0.1-3.8,0.4-4.7,1.1c-0.9,0.6-1.4,1.5-1.4,2.7c0,1,0.3,1.7,0.9,2.3C-95,288.4-94.1,288.7-93,288.7z"/>
	<path fill="#333E48" d="M-70.8,289.7v-10.2c0-1.6-0.3-2.7-1-3.4c-0.7-0.7-1.7-1.1-3.1-1.1c-1.9,0-3.2,0.5-4.1,1.4
		c-0.9,0.9-1.3,2.5-1.3,4.6v8.6h-1.4V274h1.2l0.2,2.2h0.1c1-1.6,2.8-2.4,5.4-2.4c3.5,0,5.4,1.9,5.4,5.7v10.2H-70.8z"/>
	<path fill="#333E48" d="M-53.9,289.7v-10.2c0-1.6-0.3-2.7-1-3.4c-0.7-0.7-1.7-1.1-3.1-1.1c-1.9,0-3.2,0.5-4.1,1.4
		c-0.9,0.9-1.3,2.5-1.3,4.6v8.6h-1.4V274h1.2l0.2,2.2h0.1c1-1.6,2.8-2.4,5.4-2.4c3.5,0,5.4,1.9,5.4,5.7v10.2H-53.9z"/>
	<path fill="#333E48" d="M-48.2,269.7c0-0.9,0.3-1.4,0.9-1.4c0.3,0,0.6,0.1,0.7,0.4c0.2,0.2,0.2,0.6,0.2,1c0,0.4-0.1,0.7-0.2,1
		c-0.2,0.2-0.4,0.4-0.7,0.4C-47.9,271-48.2,270.6-48.2,269.7z M-46.6,289.7H-48V274h1.4V289.7z"/>
	<path fill="#333E48" d="M-31.1,289.7v-10.2c0-1.6-0.3-2.7-1-3.4c-0.7-0.7-1.7-1.1-3.1-1.1c-1.9,0-3.2,0.5-4.1,1.4s-1.3,2.5-1.3,4.6
		v8.6H-42V274h1.2l0.2,2.2h0.1c1-1.6,2.8-2.4,5.4-2.4c3.5,0,5.4,1.9,5.4,5.7v10.2H-31.1z"/>
	<path fill="#333E48" d="M-13,274v1l-3.2,0.2c0.9,1.1,1.3,2.2,1.3,3.5c0,1.5-0.5,2.7-1.5,3.7c-1,0.9-2.4,1.4-4,1.4
		c-0.7,0-1.2,0-1.5-0.1c-0.6,0.3-1,0.6-1.3,1.1c-0.3,0.4-0.4,0.8-0.4,1.3s0.2,0.9,0.6,1.1c0.4,0.2,1,0.4,1.9,0.4h2.7
		c1.7,0,3,0.4,3.9,1.1c0.9,0.7,1.4,1.7,1.4,3c0,1.7-0.7,2.9-2,3.9c-1.4,0.9-3.2,1.4-5.7,1.4c-2,0-3.5-0.4-4.6-1.1
		c-1.1-0.7-1.6-1.8-1.6-3.2c0-1.1,0.3-2,1-2.7s1.6-1.2,2.7-1.4c-0.5-0.2-0.9-0.5-1.1-0.9c-0.2-0.4-0.4-0.8-0.4-1.3
		c0-1.1,0.7-2,2-2.7c-0.9-0.4-1.6-0.9-2.1-1.7s-0.7-1.7-0.7-2.7c0-1.6,0.5-2.8,1.5-3.8c1-0.9,2.4-1.4,4-1.4c1.1,0,1.8,0.1,2.4,0.3
		h4.9V274H-13z M-25.7,292.3c0,2.2,1.6,3.2,4.8,3.2c4.1,0,6.2-1.3,6.2-3.9c0-0.9-0.3-1.6-1-2.1c-0.6-0.4-1.7-0.6-3.1-0.6h-2.6
		C-24.3,289-25.7,290.1-25.7,292.3z M-24.5,278.9c0,1.2,0.4,2.2,1.1,2.8c0.7,0.7,1.7,1,2.9,1c1.3,0,2.3-0.3,3-1
		c0.7-0.7,1.1-1.6,1.1-2.9c0-1.3-0.4-2.4-1.1-3c-0.7-0.7-1.7-1-3-1s-2.2,0.4-2.9,1.1C-24.2,276.6-24.5,277.6-24.5,278.9z"/>
	<path fill="#333E48" d="M-10.5,288.6c0-0.9,0.4-1.4,1.2-1.4c0.8,0,1.2,0.5,1.2,1.4s-0.4,1.4-1.2,1.4
		C-10.2,290-10.5,289.5-10.5,288.6z"/>
	<path fill="#333E48" d="M6.6,289.7v-10.2c0-1.6-0.3-2.7-1-3.4c-0.7-0.7-1.7-1.1-3.1-1.1c-1.9,0-3.2,0.5-4.1,1.4s-1.3,2.5-1.3,4.6
		v8.6h-1.4V274h1.2l0.2,2.2h0.1c1-1.6,2.8-2.4,5.4-2.4c3.5,0,5.4,1.9,5.4,5.7v10.2H6.6z"/>
	<path fill="#333E48" d="M25,281.8c0,2.6-0.6,4.5-1.9,6c-1.2,1.4-2.9,2.2-5.1,2.2c-1.4,0-2.6-0.3-3.6-1c-1.1-0.7-1.9-1.6-2.4-2.9
		c-0.6-1.2-0.8-2.7-0.8-4.3c0-2.6,0.6-4.5,1.9-6s2.9-2.1,5.1-2.1s3.9,0.7,5,2.2C24.4,277.3,25,279.3,25,281.8z M12.6,281.8
		c0,2.2,0.5,3.9,1.4,5c0.9,1.2,2.3,1.8,4,1.8s3-0.6,4-1.8c0.9-1.2,1.4-2.9,1.4-5c0-2.1-0.5-3.9-1.4-5c-0.9-1.2-2.3-1.8-4-1.8
		s-3,0.6-4,1.8C13.2,278,12.6,279.6,12.6,281.8z"/>
</g>
</svg>
