<svg width="22" height="34" viewBox="0 0 22 34" fill="none" xmlns="http://www.w3.org/2000/svg">
<path d="M8 29H14V27.5H8V29ZM3.5 33.5C2.675 33.5 1.969 33.2065 1.382 32.6195C0.794 32.0315 0.5 31.325 0.5 30.5V3.5C0.5 2.675 0.794 1.9685 1.382 1.3805C1.969 0.7935 2.675 0.5 3.5 0.5H18.5C19.325 0.5 20.0315 0.7935 20.6195 1.3805C21.2065 1.9685 21.5 2.675 21.5 3.5V30.5C21.5 31.325 21.2065 32.0315 20.6195 32.6195C20.0315 33.2065 19.325 33.5 18.5 33.5H3.5ZM3.5 26V30.5H18.5V26H3.5ZM3.5 23H18.5V8H3.5V23ZM3.5 5H18.5V3.5H3.5V5Z" fill="black"/>
</svg>
